<svg xmlns="http://www.w3.org/2000/svg" version="1.0" preserveAspectRatio="xMidYMid meet" viewBox="144.08 197 784.32 573.2"><g transform="translate(0.000000,1008.000000) scale(0.100000,-0.100000)" fill="#eeede8" stroke="none"><path d="M4704 8102 c-5 -4 -56 -149 -111 -322 -105 -325 -144 -448 -465 -1445 -104 -324 -226 -702 -270 -840 -44 -137 -107 -334 -140 -437 -33 -103 -58 -193 -55 -200 7 -17 154 -95 163 -86 3 4 48 139 99 300 99 310 234 731 527 1643 99 308 214 666 255 795 41 129 79 242 83 250 8 13 9 13 14 0 3 -8 127 -377 276 -819 149 -443 271 -805 273 -807 1 -1 46 -4 100 -6 94 -3 98 -2 94 17 -6 25 -633 1899 -648 1938 -11 27 -13 27 -98 27 -47 0 -91 -4 -97 -8z"></path><path d="M4575 5999 c-104 -5 -200 -11 -212 -14 -18 -4 -27 -22 -48 -86 -34 -110 -34 -111 18 -105 184 25 873 40 1200 27 1216 -49 1937 -304 2127 -751 34 -79 39 -193 12 -246 -29 -57 -88 -107 -184 -155 -163 -82 -186 -88 -410 -99 -572 -28 -763 -78 -763 -200 0 -48 23 -74 84 -97 109 -42 462 -3 786 88 l110 31 275 -6 c770 -17 1289 -115 1465 -277 55 -51 68 -84 63 -161 -15 -227 -341 -582 -781 -851 -410 -250 -896 -420 -1422 -497 -71 -10 -133 -15 -137 -12 -4 4 -138 396 -298 872 -161 476 -361 1072 -447 1325 -85 253 -186 555 -225 670 -39 116 -74 218 -79 228 -8 14 -24 17 -104 17 -52 0 -95 -4 -95 -8 0 -5 122 -371 271 -813 573 -1699 730 -2172 725 -2177 -3 -3 -45 33 -93 79 -384 368 -1035 879 -1601 1257 -882 590 -1788 1026 -2767 1333 -110 34 -202 64 -204 66 -11 8 23 16 265 62 519 100 1080 185 1544 236 80 9 150 18 157 20 11 4 63 151 63 179 0 13 -39 10 -405 -34 -635 -77 -1453 -218 -2003 -345 -22 -5 -23 -9 -20 -102 l3 -96 70 -19 c147 -41 498 -150 685 -213 897 -306 1627 -664 2435 -1193 612 -401 1272 -923 1764 -1396 l164 -158 91 6 c145 11 368 44 550 82 684 143 1304 456 1722 869 242 240 358 444 358 636 0 77 -3 93 -32 152 -56 112 -146 186 -312 254 -239 98 -600 158 -1133 189 l-108 6 53 57 c66 69 91 110 112 180 57 194 -60 477 -270 656 -334 283 -843 442 -1674 521 -198 19 -1052 27 -1345 13z"></path><path d="M3463 4277 c-28 -89 -116 -367 -196 -617 -196 -615 -379 -1193 -381 -1204 -1 -8 172 -72 178 -65 2 2 73 227 159 499 213 673 303 956 385 1210 38 118 72 225 76 237 6 19 -2 26 -71 62 -43 23 -82 41 -88 41 -5 0 -33 -73 -62 -163z"></path></g></svg>